<svg width="42" height="50" viewBox="0 0 42 50" fill="none" xmlns="http://www.w3.org/2000/svg">
<g clip-path="url(#clip0_22_128)">
<path d="M5.8828 49.9999C9.13 49.9999 11.7655 47.3678 11.7655 44.1171V37.7842C11.7655 34.5336 9.15399 31.8499 5.90335 31.8396C2.64584 31.8293 0 34.4649 0 37.7224V44.1171C0 47.3643 2.63216 49.9999 5.8828 49.9999Z" fill="#CCCCCC"/>
<path d="M41.0694 18.8647C41.0694 21.3765 40.578 23.7716 39.688 25.9639C37.774 30.6714 34.0149 34.4341 29.3038 36.348C27.1116 37.238 24.7166 37.7294 22.2047 37.7294H14.1021V25.9639H22.2047C26.1254 25.9639 29.3038 22.7854 29.3038 18.8647C29.3038 14.944 26.1254 11.7655 22.2047 11.7655H11.7655V32.1318C10.2879 30.5752 8.19879 29.6062 5.8828 29.6062C3.56681 29.6062 1.481 30.5752 0 32.1318V0H22.2013C24.7131 0 27.1081 0.491375 29.3004 1.38135C34.008 3.29531 37.7706 7.0545 39.6846 11.7655C40.5745 13.9578 41.0659 16.3528 41.0659 18.8647H41.0694Z" fill="white"/>
</g>
<defs>
<clipPath id="clip0_22_128">
<rect width="42" height="50" fill="white"/>
</clipPath>
</defs>
</svg>
