<svg width="740" height="900" viewBox="0 0 740 900" fill="none" xmlns="http://www.w3.org/2000/svg">
<path d="M105.89 900C164.34 900 211.779 852.622 211.779 794.11V680.118C211.779 621.607 164.772 573.301 106.26 573.115C47.6252 572.93 0 620.37 0 679.005V794.11C0 852.56 47.3789 900 105.89 900Z" fill="#485460"/>
<path d="M739.248 339.564C739.248 384.778 730.403 427.888 714.384 467.349C679.933 552.086 612.267 619.813 527.469 654.264C488.008 670.284 444.898 679.129 399.685 679.129H253.838V467.349H399.685C470.257 467.349 527.469 410.137 527.469 339.564C527.469 268.992 470.257 211.779 399.685 211.779H211.779V578.373C185.183 550.354 147.578 532.912 105.89 532.912C64.2025 532.912 26.658 550.354 0 578.373V0H399.623C444.836 0 487.946 8.84475 527.407 24.8643C612.144 59.3155 679.871 126.981 714.322 211.779C730.342 251.24 739.186 294.351 739.186 339.564H739.248Z" fill="white"/>
</svg>
